# xmcd CD database file
#
# Track frame offsets:
#	150
#	10960
#	26754
#	39332
#	56893
#	71836
#	86325
#	103845
#	118107
#	133489
#	152685
#	168065
#
# Disc length: 2520 seconds
#
# Revision: 0
# Processed by: cddbd v1.5.1PL2 Copyright (c) Steve Scherf et al.
# Submitted via: CDex 1.50
#
DISCID=a209d60c
DTITLE=Réal Deraspe - Pour que jamais tu n'oublies
DYEAR=2005
DGENRE=Country
TTITLE0=J'y pense et puis j'oublie
TTITLE1=Chanter pour rien
TTITLE2=If you only Knew
TTITLE3=Pour que jamais tu n'oublies
TTITLE4=Keep on Smilling
TTITLE5=Mon p'tit gars
TTITLE6=Marin
TTITLE7=Bottle Let Me Down
TTITLE8=J'au un problème
TTITLE9=Regarde sous ton balcon
TTITLE10=This Arms
TTITLE11=Profitons de la vie
EXTD=YEAR: 2005
EXTT0=
EXTT1=
EXTT2=
EXTT3=
EXTT4=
EXTT5=
EXTT6=
EXTT7=
EXTT8=
EXTT9=
EXTT10=
EXTT11=
PLAYORDER=
